<?xml version="1.0" standalone="no"?>
<!DOCTYPE svg PUBLIC "-//W3C//DTD SVG 20010904//EN"
 "http://www.w3.org/TR/2001/REC-SVG-20010904/DTD/svg10.dtd">
<svg version="1.0" xmlns="http://www.w3.org/2000/svg"
 width="537.000000pt" height="412.000000pt" viewBox="0 0 537.000000 412.000000"
 preserveAspectRatio="xMidYMid meet">

<g transform="translate(0.000000,412.000000) scale(0.100000,-0.100000)"
fill="#000000" stroke="none">
<path d="M1985 4014 c-835 -66 -1538 -648 -1759 -1457 -48 -175 -66 -316 -66
-518 0 -195 16 -328 61 -499 150 -572 564 -1063 1099 -1301 141 -63 338 -122
493 -149 158 -26 444 -29 607 -6 131 19 331 73 463 127 356 143 672 402 899
738 107 158 223 420 273 617 19 76 19 84 1 84 -9 0 -20 -26 -31 -72 -134 -560
-536 -1051 -1060 -1299 -376 -177 -814 -231 -1220 -148 -519 106 -966 413
-1260 867 -63 98 -156 293 -200 422 -129 374 -129 851 -1 1233 210 629 723
1108 1365 1273 406 105 819 78 1216 -78 288 -114 567 -320 775 -573 175 -213
321 -507 385 -772 11 -47 22 -73 31 -73 18 0 18 -2 -10 110 -35 137 -70 228
-143 373 -191 384 -481 681 -863 884 -159 85 -451 178 -630 202 -87 11 -352
21 -425 15z"/>
<path d="M1780 2330 c-11 -11 -20 -24 -20 -29 0 -16 31 -41 50 -41 19 0 50 25
50 41 0 12 -37 49 -50 49 -5 0 -19 -9 -30 -20z"/>
<path d="M2528 2333 c19 -14 22 -24 22 -90 0 -70 -1 -73 -19 -63 -58 30 -146
-3 -177 -68 -22 -45 -25 -152 -5 -199 27 -66 135 -98 177 -52 l18 20 8 -22 c6
-16 14 -20 31 -15 12 3 37 6 56 6 l33 0 -23 19 c-24 19 -24 21 -27 250 l-3
231 -57 -1 c-55 0 -56 -1 -34 -16z m3 -173 c17 -10 19 -22 19 -132 0 -111 -2
-124 -22 -145 -28 -30 -59 -29 -89 3 -20 21 -24 38 -27 100 -3 41 -1 89 2 107
12 64 65 94 117 67z"/>
<path d="M4824 2325 l26 -24 -2 -213 -3 -212 -25 -13 c-22 -11 -15 -13 60 -13
79 0 83 1 62 16 -22 15 -22 19 -22 250 l0 234 -61 0 -62 0 27 -25z"/>
<path d="M1370 2300 c0 -5 7 -10 15 -10 28 0 35 -39 35 -207 0 -189 -3 -206
-33 -221 -17 -8 0 -11 73 -11 75 1 89 3 67 11 -33 12 -39 32 -35 128 3 70 5
75 26 78 33 5 72 -24 72 -53 0 -13 5 -27 10 -30 6 -4 10 27 10 84 0 54 -4 91
-10 91 -5 0 -10 -8 -10 -18 0 -34 -29 -62 -66 -62 l-34 0 0 93 c0 59 4 97 12
105 7 7 36 12 65 12 44 0 59 -5 78 -25 14 -13 25 -34 25 -47 0 -13 4 -29 9
-37 9 -13 23 106 14 122 -7 11 -323 9 -323 -3z"/>
<path d="M2870 2302 c0 -4 10 -12 23 -17 21 -10 22 -14 25 -190 1 -99 0 -189
-2 -201 -3 -11 -16 -26 -28 -32 -19 -9 -12 -11 42 -11 62 0 64 0 38 14 l-26
15 -4 172 c-2 95 -1 176 2 180 3 5 40 -78 81 -184 42 -106 80 -193 85 -195 5
-2 40 80 78 181 37 101 72 190 77 197 5 8 8 -60 6 -171 l-2 -184 -25 -13 c-22
-11 -14 -13 65 -12 72 0 86 3 68 11 -23 11 -23 13 -23 215 0 196 1 205 20 210
38 10 20 23 -34 23 -31 0 -58 -5 -63 -12 -6 -7 -36 -83 -68 -168 -32 -85 -61
-159 -65 -163 -4 -4 -35 65 -69 155 -35 90 -68 169 -73 176 -11 13 -128 17
-128 4z"/>
<path d="M3978 2294 c-36 -19 -48 -43 -48 -94 0 -55 21 -83 106 -141 84 -56
104 -81 104 -126 0 -63 -65 -98 -126 -69 -34 16 -57 52 -69 109 -11 53 -25 27
-25 -47 0 -71 11 -104 24 -71 5 14 9 14 42 0 53 -22 130 -19 171 6 39 24 53
53 53 109 0 49 -29 84 -120 144 -77 51 -100 78 -100 117 0 34 42 69 82 69 37
0 86 -46 94 -90 12 -58 24 -41 24 32 -1 64 -2 71 -14 55 -13 -17 -16 -17 -45
-3 -38 20 -117 20 -153 0z"/>
<path d="M4335 2281 c-28 -6 -30 -10 -33 -53 -3 -42 -6 -47 -30 -51 l-27 -4
28 -2 c15 0 27 -7 27 -13 4 -229 7 -259 27 -286 28 -37 92 -43 122 -11 12 13
21 32 21 43 0 19 -2 19 -13 -4 -9 -18 -21 -25 -42 -25 l-30 0 -3 148 -3 147
49 0 c26 0 55 -6 64 -12 9 -7 44 -80 78 -161 67 -159 71 -196 29 -238 -25 -25
-43 -25 -30 -1 17 31 -17 58 -51 40 -21 -10 -23 -39 -6 -56 16 -16 70 -15 91
1 9 6 49 98 88 202 39 105 80 200 92 213 l20 22 -59 0 c-58 -1 -59 -1 -31 -16
15 -8 27 -22 27 -32 0 -22 -62 -192 -71 -192 -8 0 -79 181 -79 203 0 10 10 22
23 27 15 6 -19 9 -105 9 l-128 1 0 49 c0 28 -3 52 -7 54 -5 2 -21 1 -38 -2z"/>
<path d="M1775 2180 c-27 -4 -45 -8 -38 -8 6 -1 19 -9 27 -18 13 -12 16 -40
16 -144 0 -122 -1 -130 -22 -144 -21 -15 -18 -16 57 -16 75 0 78 1 57 16 -21
15 -22 21 -22 170 0 117 -3 154 -12 152 -7 0 -35 -4 -63 -8z"/>
<path d="M1976 2182 c-46 -3 -48 -4 -27 -18 20 -14 21 -24 21 -153 0 -133 -1
-138 -22 -149 -19 -9 -8 -11 56 -11 71 -1 78 1 60 13 -16 12 -20 29 -22 103
-4 103 11 157 50 186 23 17 32 19 53 9 24 -11 25 -14 27 -124 2 -147 0 -161
-19 -175 -14 -11 -3 -13 63 -12 62 0 74 3 58 11 -26 12 -34 59 -34 188 0 73
-3 92 -21 114 -29 36 -95 37 -138 1 l-30 -26 -3 22 c-3 26 -6 26 -72 21z"/>
<path d="M5067 2161 c-47 -42 -72 -106 -64 -171 12 -98 64 -150 152 -150 40 0
52 5 81 34 38 38 48 73 12 38 -79 -73 -168 -25 -168 91 l0 47 95 0 95 0 0 35
c0 24 -9 44 -28 66 -24 27 -37 33 -84 37 -50 4 -58 2 -91 -27z m106 7 c9 -7
21 -34 26 -60 l8 -48 -65 0 -65 0 6 38 c4 22 17 46 32 60 30 26 35 26 58 10z"/>
<path d="M3428 2157 c21 -23 142 -298 142 -324 0 -18 -30 -76 -44 -85 -19 -13
-23 -9 -19 16 4 17 -1 27 -15 35 -27 14 -55 -7 -50 -40 2 -20 9 -24 44 -27 56
-4 70 14 134 190 68 185 90 238 101 238 5 0 9 5 9 10 0 6 -23 10 -51 10 l-52
0 27 -21 c32 -25 31 -27 -15 -149 l-32 -82 -43 106 c-24 59 -44 110 -44 115 0
4 10 13 23 19 18 9 7 11 -57 11 l-79 1 21 -23z"/>
</g>
</svg>
