<?xml version="1.0" standalone="no"?>
<!DOCTYPE svg PUBLIC "-//W3C//DTD SVG 20010904//EN"
 "http://www.w3.org/TR/2001/REC-SVG-20010904/DTD/svg10.dtd">
<svg version="1.0" xmlns="http://www.w3.org/2000/svg"
 width="525.000000pt" height="412.000000pt" viewBox="0 0 525.000000 412.000000"
 preserveAspectRatio="xMidYMid meet">

<g transform="translate(0.000000,412.000000) scale(0.100000,-0.100000)"
fill="#000000" stroke="none">
<path d="M1846 4069 c-210 -20 -462 -91 -664 -189 -516 -249 -906 -722 -1052
-1275 -60 -230 -79 -550 -45 -784 70 -479 325 -936 688 -1235 294 -241 610
-384 977 -442 142 -22 448 -22 585 1 458 75 821 265 1141 597 228 236 396 534
475 843 27 104 58 269 52 275 -9 10 -21 -26 -32 -99 -97 -622 -560 -1210
-1151 -1458 -561 -236 -1176 -211 -1700 69 -517 277 -883 771 -1000 1347 -124
614 67 1275 499 1724 284 296 629 491 1016 573 954 202 1904 -323 2246 -1240
36 -95 85 -281 94 -357 7 -54 19 -88 28 -79 3 3 -3 48 -13 100 -78 407 -239
727 -509 1012 -271 285 -582 470 -950 563 -207 52 -478 74 -685 54z"/>
<path d="M1293 2276 c15 -12 17 -33 17 -180 0 -141 -2 -166 -15 -166 -8 0 -15
-4 -15 -10 0 -6 33 -10 80 -10 44 0 80 2 80 5 0 3 -11 10 -25 15 -24 9 -25 14
-25 85 0 72 1 75 23 75 25 0 57 -28 57 -48 0 -7 3 -12 8 -12 4 0 5 32 4 71
l-4 71 -19 -31 c-10 -17 -23 -31 -28 -31 -5 0 -16 -3 -25 -6 -14 -5 -16 5 -16
79 l0 85 30 5 c57 12 110 -26 110 -78 0 -8 5 -17 10 -20 6 -4 10 17 10 54 l0
61 -137 0 c-117 -1 -135 -3 -120 -14z"/>
<path d="M1603 2276 c15 -12 17 -33 17 -180 0 -141 -2 -166 -15 -166 -8 0 -15
-4 -15 -10 0 -6 30 -10 70 -10 65 0 90 10 55 24 -12 4 -15 32 -15 164 0 154 1
160 23 175 21 15 18 16 -58 16 -69 0 -78 -2 -62 -13z"/>
<path d="M1798 2273 c21 -15 22 -21 22 -163 0 -156 -3 -180 -26 -180 -8 0 -14
-4 -14 -10 0 -5 24 -10 53 -10 l52 1 -27 20 -28 21 0 131 c0 115 2 129 15 117
8 -8 58 -75 112 -149 54 -74 104 -136 111 -139 9 -3 12 36 12 161 0 173 3 197
26 197 8 0 14 5 14 10 0 6 -22 10 -50 10 l-49 0 24 -25 c23 -23 25 -31 25
-132 0 -60 -4 -103 -9 -97 -4 5 -50 64 -100 132 l-92 122 -47 -1 c-46 0 -46 0
-24 -16z"/>
<path d="M2178 2271 c21 -21 22 -29 22 -166 0 -151 -4 -175 -26 -175 -8 0 -14
-5 -14 -11 0 -8 32 -10 108 -7 129 5 182 28 220 93 30 53 28 168 -4 212 -41
54 -77 67 -208 71 l-121 4 23 -21z m187 -5 c51 -22 69 -64 69 -166 0 -122 -22
-158 -103 -174 -58 -11 -61 -2 -61 173 0 190 7 203 95 167z"/>
<path d="M2705 2275 c19 -15 20 -26 17 -173 -3 -131 -6 -159 -19 -169 -24 -19
-11 -25 43 -20 39 3 44 5 26 11 -30 11 -33 30 -30 183 l3 133 65 -160 c35 -88
68 -159 73 -157 5 1 35 70 66 152 54 143 56 147 62 110 4 -21 4 -87 1 -146 -4
-98 -7 -108 -26 -115 -14 -5 3 -9 53 -11 77 -4 98 2 68 18 -15 9 -17 28 -17
173 0 161 0 164 23 172 17 6 10 8 -32 11 -30 2 -57 1 -62 -4 -4 -4 -27 -61
-52 -126 -24 -65 -47 -119 -52 -120 -5 -1 -32 54 -60 123 l-51 125 -59 3 c-56
2 -59 1 -40 -13z"/>
<path d="M3157 2268 c11 -13 44 -66 72 -119 44 -83 51 -103 51 -153 0 -49 -3
-59 -20 -63 -44 -12 -16 -23 58 -22 73 0 76 1 55 16 -20 13 -23 24 -23 84 0
60 5 80 36 142 20 39 47 87 61 105 l24 32 -53 -1 c-51 0 -52 -1 -30 -16 12 -8
22 -22 22 -30 0 -17 -61 -143 -69 -143 -8 0 -81 135 -81 150 0 7 8 19 18 26
15 11 6 13 -62 14 l-79 0 20 -22z"/>
<path d="M3649 2261 c-54 -54 -37 -102 59 -173 73 -53 81 -65 82 -110 0 -92
-131 -71 -146 23 -11 67 -24 54 -24 -23 0 -48 3 -68 9 -59 8 12 14 13 36 3 14
-7 50 -12 80 -12 46 0 60 5 86 28 25 22 32 37 33 69 1 49 -9 61 -101 130 -66
49 -73 57 -73 88 0 84 114 69 135 -17 12 -46 25 -31 25 27 0 49 -12 73 -22 44
-3 -9 -9 -9 -25 0 -12 6 -45 11 -73 11 -44 0 -56 -5 -81 -29z"/>
<path d="M3904 2268 c3 -13 6 -41 6 -63 l1 -40 17 45 c14 36 24 47 52 56 19 7
38 10 43 7 8 -5 9 -288 1 -320 -4 -13 -14 -23 -25 -23 -10 0 -21 -4 -24 -10
-4 -6 27 -10 84 -10 50 0 91 2 91 5 0 3 -11 10 -25 15 l-25 10 0 170 0 170 28
-6 c39 -10 61 -32 68 -70 10 -54 24 -39 24 26 l0 60 -161 0 -161 0 6 -22z"/>
<path d="M4253 2258 c52 -71 117 -207 117 -245 0 -53 -10 -83 -26 -83 -8 0
-14 -4 -14 -10 0 -6 32 -10 78 -9 73 0 76 1 55 16 -20 14 -23 24 -23 86 0 64
4 80 41 152 23 44 51 90 62 103 l20 22 -53 0 -54 0 22 -20 c12 -12 22 -24 22
-27 0 -15 -64 -143 -71 -143 -8 0 -89 151 -89 165 0 3 6 5 14 5 8 0 18 5 21
10 4 6 -22 10 -70 10 l-76 0 24 -32z"/>
<path d="M4598 2273 c21 -15 22 -21 22 -173 0 -152 -1 -158 -22 -173 -21 -15
-13 -16 119 -16 78 -1 144 2 146 7 2 4 1 34 -2 67 -6 54 -7 57 -13 27 -4 -18
-19 -44 -33 -58 -21 -21 -33 -25 -73 -22 l-47 3 -3 163 c-2 157 -2 164 18 169
44 12 16 23 -57 22 -74 0 -77 -1 -55 -16z"/>
<path d="M4918 2273 c21 -15 22 -21 22 -175 0 -151 -1 -160 -20 -165 -53 -14
-7 -23 120 -23 l140 0 -1 63 -1 62 -15 -43 c-18 -51 -39 -64 -101 -60 l-47 3
-3 78 c-2 61 0 79 12 83 22 8 55 -13 62 -41 3 -14 11 -25 16 -25 6 0 8 10 4
23 -3 12 -6 47 -6 77 l0 55 -18 -35 c-12 -25 -25 -36 -44 -38 l-28 -3 0 76 c0
73 1 76 27 86 53 20 100 -5 121 -66 10 -28 10 -25 11 28 l1 57 -137 -1 c-128
0 -136 -1 -115 -16z"/>
</g>
</svg>
